{"glyphs":{":":{"x_min":0,"x_max":376,"ha":376,"o":"m 188 202 q 253 202 293 173 q 333 145 333 96 q 333 47 292 16 q 252 -15 188 -15 q 108 -15 68 30 q 44 56 44 91 q 44 141 83 171 q 123 201 188 202 z m 188 482 q 253 482 293 453 q 333 424 333 376 q 333 327 292 296 q 252 265 188 265 q 108 265 68 310 q 44 336 44 371 q 44 421 83 451 q 123 481 188 482 z"},"$":{"x_min":0,"x_max":646,"ha":646,"o":"m 455 618 l 391 466 l 401 455 q 499 340 521 311 q 573 240 573 168 q 573 134 557 101 q 541 68 512 46 q 438 -15 316 -15 q 250 -15 198 2 l 181 -38 q 173 -56 170 -60 q 167 -64 158 -64 q 150 -64 145 -60 q 140 -56 140 -50 q 140 -46 146 -31 l 150 -21 l 164 13 q 67 57 67 102 q 67 110 73 116 q 78 122 86 122 q 97 122 109 104 q 139 62 179 46 l 249 207 q 180 288 146 332 q 80 422 80 490 q 80 577 154 631 q 221 679 327 679 q 382 679 436 663 l 455 708 q 461 723 470 723 q 478 723 484 718 q 490 713 490 707 q 490 699 469 650 q 545 612 545 590 q 545 583 539 577 q 533 571 526 571 q 517 571 489 595 q 471 611 455 618 z m 425 632 q 381 645 350 645 q 326 645 314 636 q 302 628 302 611 q 302 583 368 494 z m 272 179 l 211 34 q 255 18 303 18 q 327 18 341 27 q 354 36 354 52 q 354 67 331 103 q 308 139 272 179 z"},"?":{"x_min":0,"x_max":553,"ha":553,"o":"m 271 306 l 271 261 l 238 261 l 239 652 q 169 648 119 606 q 77 572 77 529 q 77 520 79 510 q 82 497 82 491 q 82 484 76 479 q 70 474 62 474 q 51 474 43 485 q 36 497 36 515 q 36 550 59 585 q 81 621 119 646 q 181 687 278 687 q 403 687 469 621 q 520 570 520 495 q 520 429 479 381 q 446 342 401 326 q 356 310 271 306 z m 252 202 q 316 202 357 171 q 397 141 397 93 q 397 49 365 21 q 325 -15 254 -15 q 190 -15 149 14 q 108 44 108 91 q 108 139 145 168 q 185 201 252 202 z"},"<":{"x_min":0,"x_max":500,"ha":500,"o":"m 463 649 l 463 567 l 256 441 l 463 297 l 463 81 l 36 377 l 36 387 z"},"'":{"x_min":0,"x_max":217,"ha":217,"o":"m 63 398 l 43 667 l 173 667 l 153 398 z"},"=":{"x_min":0,"x_max":646,"ha":646,"o":"m 324 248 l 139 245 l 114 245 l 78 245 q 47 245 47 264 q 47 284 78 284 l 112 283 l 321 281 l 535 283 l 569 284 q 600 284 600 264 q 600 245 569 245 l 533 245 l 508 245 z m 324 381 l 164 379 l 139 379 l 78 378 q 47 378 47 397 q 47 417 78 417 l 112 416 l 321 414 l 535 416 l 569 417 q 600 417 600 397 q 600 378 569 378 l 508 379 l 483 379 z"},"a":{"x_min":0,"x_max":704,"ha":704,"o":"m 403 325 l 403 385 q 402 447 401 461 q 399 475 392 486 q 375 514 310 514 q 210 514 156 451 q 134 426 119 426 q 108 426 100 434 q 91 441 91 452 q 91 482 164 515 q 233 546 343 546 q 524 546 598 492 q 630 468 640 438 q 650 408 650 333 l 650 139 q 648 85 653 58 q 658 31 676 0 l 403 0 l 403 51 q 358 21 314 5 q 270 -11 227 -11 q 154 -11 97 32 q 23 87 23 176 q 23 255 83 303 q 152 360 255 360 q 297 360 329 353 q 361 345 403 325 z m 403 290 q 342 321 308 321 q 280 321 271 298 q 266 286 266 228 l 266 111 q 267 72 269 64 q 273 42 302 42 q 324 42 352 55 q 379 68 402 90 z"},"L":{"x_min":0,"x_max":669,"ha":669,"o":"m 357 667 l 355 564 l 353 402 l 354 283 l 355 32 l 391 31 l 600 34 l 638 35 q 667 35 667 18 q 667 2 651 1 q 647 0 628 0 l 57 0 l 58 186 l 59 299 l 60 428 l 58 625 l 59 667 z"},"3":{"x_min":0,"x_max":646,"ha":646,"o":"m 295 650 q 177 652 116 583 q 95 561 82 561 q 75 561 69 568 q 63 575 63 584 q 63 603 103 629 q 184 684 320 684 q 422 684 489 646 q 526 625 546 591 q 566 557 566 516 q 566 447 511 407 q 460 370 384 361 q 344 357 333 354 l 414 343 q 505 332 556 285 q 600 245 600 183 q 600 124 558 75 q 477 -19 291 -19 q 148 -19 65 38 q 10 74 10 106 q 10 115 16 120 q 22 126 30 126 q 41 126 46 121 q 52 115 64 94 q 81 64 121 45 q 191 13 273 13 l 295 14 l 295 339 l 222 339 q 197 339 191 342 q 185 345 185 355 q 185 367 191 370 q 197 373 222 373 l 295 373 z"},";":{"x_min":0,"x_max":376,"ha":376,"o":"m 181 482 q 246 482 285 453 q 325 424 325 376 q 325 327 285 296 q 245 265 181 265 q 100 265 60 310 q 37 336 37 371 q 37 421 76 451 q 115 481 181 482 z m 312 47 q 288 16 252 0 q 217 -15 170 -15 q 119 -15 82 8 q 37 36 37 87 q 37 128 66 158 q 112 205 187 205 q 256 205 298 166 q 339 128 339 63 q 339 21 322 -14 q 304 -49 273 -70 q 226 -102 146 -102 q 109 -102 109 -87 q 109 -75 127 -75 l 143 -76 l 153 -76 q 204 -76 238 -61 q 282 -42 301 4 q 306 16 312 47 z"},"J":{"x_min":0,"x_max":638,"ha":638,"o":"m 579 667 l 578 551 l 580 373 l 582 255 q 582 133 512 62 q 472 20 412 0 q 352 -20 268 -20 q 145 -20 78 29 q 49 51 29 84 q 10 116 10 144 q 10 165 30 165 q 50 165 54 135 q 63 72 132 38 q 188 11 252 11 q 261 11 282 12 l 283 32 l 284 166 l 286 521 l 282 667 z"},"V":{"x_min":0,"x_max":784,"ha":784,"o":"m 554 276 l 642 440 q 707 560 745 640 q 755 662 761 669 q 768 676 776 676 q 785 676 791 670 q 797 665 797 657 q 797 648 787 630 q 785 626 782 622 q 777 614 770 600 l 408 -51 l -9 667 l 333 667 z"},"\"":{"x_min":0,"x_max":387,"ha":387,"o":"m 63 398 l 43 667 l 173 667 l 153 398 z m 233 398 l 213 667 l 343 667 l 323 398 z"},"7":{"x_min":0,"x_max":646,"ha":646,"o":"m 623 667 l 520 353 l 406 0 l 68 0 l 84 35 l 180 230 l 374 635 l 257 635 q 104 634 60 619 q 46 614 38 614 q 23 614 23 642 q 23 668 44 668 l 118 666 l 166 666 l 392 667 z"},"S":{"x_min":0,"x_max":597,"ha":597,"o":"m 50 113 q 59 113 71 100 q 107 60 160 36 q 213 12 265 12 q 322 12 322 46 q 322 68 302 96 q 282 124 207 205 q 111 308 80 358 q 38 424 38 483 q 38 573 118 630 q 196 687 312 687 q 392 687 459 654 q 485 641 503 625 q 521 608 521 597 q 521 591 516 587 q 511 582 506 582 q 498 582 481 597 q 455 622 412 638 q 369 655 330 655 q 305 655 290 644 q 274 634 274 617 q 274 597 293 568 q 312 540 358 492 q 501 339 534 286 q 567 229 567 177 q 567 133 543 93 q 520 54 477 28 q 396 -20 279 -20 q 172 -20 90 36 q 33 75 33 97 q 33 103 38 108 q 43 113 50 113 z"},"}":{"x_min":0,"x_max":646,"ha":646,"o":"m 418 285 q 334 292 298 318 q 261 345 261 402 l 261 601 q 261 631 254 640 q 247 649 223 649 l 200 649 l 183 649 q 159 649 152 650 q 134 653 134 669 q 134 682 150 684 q 165 687 242 687 q 355 687 401 646 q 420 629 427 606 q 434 583 434 536 l 434 370 q 434 330 443 317 q 452 303 479 303 l 488 303 q 507 303 507 285 q 507 267 488 267 l 479 267 q 452 267 443 253 q 434 240 434 199 l 434 34 q 434 -16 426 -40 q 417 -63 396 -81 q 349 -118 242 -118 q 165 -118 150 -115 q 134 -112 134 -100 q 134 -84 152 -81 q 159 -80 182 -80 l 200 -80 l 223 -80 q 247 -80 254 -71 q 261 -62 261 -31 l 261 168 q 261 224 298 251 q 334 278 418 285 z"},"Z":{"x_min":0,"x_max":672,"ha":672,"o":"m 656 667 l 646 646 q 473 298 357 33 l 469 33 l 585 34 l 617 35 q 646 35 646 18 q 646 5 639 3 q 632 0 592 0 l 23 0 l 33 19 q 246 447 325 635 l 104 630 l 82 630 q 54 630 54 648 q 54 661 66 665 q 73 667 100 667 z"},"x":{"x_min":0,"x_max":712,"ha":712,"o":"m 469 319 l 507 266 q 577 169 623 112 q 670 54 721 0 l 400 0 l 243 217 q 153 126 72 25 q 44 -11 31 -11 q 23 -11 15 -2 q 6 6 6 13 q 6 25 42 57 q 126 138 223 244 l 180 304 q 61 470 -2 533 l 316 533 l 449 345 q 553 459 600 519 q 622 547 633 547 q 641 547 650 539 q 658 530 658 523 q 658 513 631 488 q 612 471 554 410 z"},")":{"x_min":0,"x_max":365,"ha":365,"o":"m 90 688 q 131 688 173 666 q 215 645 245 609 q 295 549 308 462 q 315 411 315 259 q 315 174 312 131 q 308 87 297 50 q 271 -37 199 -87 q 147 -124 90 -124 q 67 -124 67 -108 q 67 -102 70 -99 q 74 -96 91 -87 q 106 -80 118 -60 q 129 -41 133 -18 q 137 9 140 98 q 144 188 144 272 q 144 565 125 612 q 111 645 74 659 q 67 662 67 671 q 67 688 90 688 z"},"&":{"x_min":0,"x_max":763,"ha":763,"o":"m 563 222 q 641 111 747 0 l 404 0 q 380 21 357 46 q 287 -11 202 -11 q 160 -11 122 4 q 83 20 61 45 q 23 88 23 150 q 23 207 55 250 q 87 294 157 333 q 124 395 112 430 q 100 465 100 498 q 100 575 155 623 q 224 683 343 683 q 440 683 493 638 q 529 607 529 558 q 529 480 426 428 q 453 379 543 248 q 656 359 715 359 q 740 359 740 337 q 740 326 734 323 q 728 319 703 317 q 679 314 648 293 q 618 272 563 222 z m 334 70 q 289 126 259 169 q 229 212 172 305 q 108 267 83 233 q 57 199 57 153 q 57 98 90 64 q 108 44 139 32 q 170 21 202 21 q 273 21 334 70 z m 407 455 q 496 496 496 557 q 496 602 455 626 q 415 650 340 650 q 327 650 316 649 q 335 574 407 455 z"},"_":{"x_min":0,"x_max":500,"ha":500,"o":"m -1 -94 l 502 -94 l 502 -191 l -1 -191 z"},"v":{"x_min":0,"x_max":630,"ha":630,"o":"m 452 248 q 567 450 591 510 q 603 538 609 546 q 615 554 625 554 q 634 554 642 548 q 650 542 650 536 q 650 528 639 510 l 354 -1 l 339 -29 l 209 175 l 167 243 l 122 312 l 83 373 l -27 533 l 277 533 l 395 337 z"},"O":{"x_min":0,"x_max":758,"ha":758,"o":"m 381 687 q 458 687 530 654 q 635 605 691 505 q 735 424 735 330 q 735 253 702 182 q 651 76 545 21 q 467 -20 381 -20 q 290 -20 209 26 q 101 86 55 196 q 27 263 27 334 q 27 423 71 504 q 126 604 231 653 q 301 686 381 687 z m 342 654 l 339 336 l 342 72 l 342 12 q 359 9 374 9 q 482 9 567 69 q 645 124 679 209 q 704 270 704 334 q 704 419 663 492 q 612 582 521 625 q 453 657 377 657 q 359 657 342 654 z"},"(":{"x_min":0,"x_max":365,"ha":365,"o":"m 275 688 q 298 688 298 672 q 298 666 295 663 q 292 660 274 651 q 259 644 248 624 q 236 605 232 582 q 228 555 225 466 q 222 376 222 292 q 222 -1 241 -48 q 254 -81 291 -95 q 298 -98 298 -107 q 298 -124 275 -124 q 234 -124 192 -102 q 150 -81 120 -45 q 70 15 57 102 q 50 153 50 305 q 50 390 54 434 q 58 478 68 514 q 95 602 166 651 q 218 687 275 688 z"},"C":{"x_min":0,"x_max":706,"ha":706,"o":"m 342 653 l 340 307 l 342 13 q 368 10 384 10 q 432 10 482 27 q 533 44 571 73 q 596 92 623 124 q 649 156 666 186 q 675 204 686 204 q 702 204 702 190 q 702 175 677 140 q 653 105 625 78 q 562 18 478 -6 q 427 -20 380 -20 q 312 -20 243 9 q 132 56 75 156 q 27 240 27 333 q 27 429 77 514 q 130 604 227 652 q 298 687 380 687 q 521 687 623 591 q 672 546 672 526 q 672 521 667 516 q 662 512 656 512 q 646 512 633 531 q 591 589 522 623 q 453 657 376 657 q 358 657 342 653 z"},"W":{"x_min":0,"x_max":1013,"ha":1013,"o":"m 843 316 q 922 505 973 642 q 981 665 986 670 q 991 676 1002 676 q 1012 676 1019 671 q 1026 666 1026 659 q 1026 653 988 566 l 960 503 l 717 -47 l 597 180 l 502 349 l 427 212 l 313 -1 l 290 -47 l 196 186 l 113 387 q 51 539 -6 660 l -9 667 l 297 667 l 339 559 q 403 398 441 317 l 531 483 l 564 546 l 587 588 l 625 658 q 633 675 641 689 l 713 548 q 776 428 843 316 z"},"A":{"x_min":0,"x_max":781,"ha":781,"o":"m 403 707 l 793 0 l 455 0 l 409 89 l 245 89 l 100 90 l 76 90 l 43 31 q 29 4 24 -3 q 18 -9 10 -9 q -7 -9 -7 5 q -7 12 3 29 q 12 46 69 143 l 365 641 z m 251 387 l 166 243 l 97 124 l 244 122 l 391 124 z"},"f":{"x_min":0,"x_max":384,"ha":384,"o":"m 314 504 l 313 358 l 312 176 l 314 20 l 314 0 l 65 0 l 65 17 l 66 96 l 67 267 l 65 490 l 65 504 l 56 504 l 19 503 q -3 503 -3 520 q -3 537 17 537 l 40 536 l 68 536 q 75 577 86 600 q 96 623 118 645 q 179 705 292 705 q 348 705 391 688 q 433 672 433 650 q 433 642 427 636 q 420 630 411 630 q 401 630 392 641 q 380 655 374 660 q 368 664 359 664 q 334 664 324 635 q 313 607 313 536 l 358 536 q 361 536 371 537 q 379 537 387 537 q 407 537 407 520 q 407 503 383 503 l 347 504 z"},"Q":{"x_min":0,"x_max":757,"ha":757,"o":"m 595 49 q 639 10 712 -34 q 726 -42 726 -50 q 726 -57 720 -62 q 715 -67 708 -67 q 695 -67 649 -36 q 602 -5 564 29 q 475 -20 381 -20 q 289 -20 206 26 q 111 79 63 177 q 27 250 27 333 q 27 470 118 570 q 169 627 240 657 q 307 687 380 687 q 482 687 568 633 q 655 579 700 484 q 734 412 734 333 q 734 250 697 174 q 659 98 595 49 z m 569 70 q 611 98 647 150 q 704 231 704 332 q 704 417 660 495 q 618 570 543 613 q 469 656 380 656 q 361 656 342 653 l 342 13 q 359 9 376 9 q 468 9 540 51 q 453 137 453 154 q 453 159 458 164 q 463 169 468 169 q 476 169 491 151 q 533 101 569 70 z"},"w":{"x_min":0,"x_max":864,"ha":864,"o":"m 726 266 q 779 376 830 510 q 842 542 847 549 q 852 556 860 556 q 870 556 876 551 q 883 545 883 538 q 883 531 878 518 q 873 505 842 437 l 780 302 l 723 180 l 677 78 l 628 -34 l 443 284 q 425 253 394 196 l 270 -34 l 179 141 l 109 274 l 49 389 l -27 533 l 250 533 l 391 260 q 431 328 447 356 q 462 385 560 570 z"},"-":{"x_min":0,"x_max":350,"ha":350,"o":"m 245 257 l 174 257 l 32 255 q 0 255 0 273 q 0 292 31 292 l 65 291 l 153 289 l 280 292 l 318 292 q 350 292 350 274 q 350 256 317 256 l 282 257 z"},"E":{"x_min":0,"x_max":669,"ha":669,"o":"m 354 453 q 353 430 353 398 l 353 369 l 356 32 l 521 34 l 639 35 q 667 35 667 18 q 667 3 653 1 q 649 0 612 0 l 58 0 l 58 25 l 59 188 l 61 363 l 57 667 l 574 667 q 609 667 614 665 q 625 662 625 648 q 625 631 604 631 l 600 631 l 355 635 l 354 483 l 407 483 l 578 486 l 615 486 q 636 486 642 483 q 649 479 649 469 q 649 450 617 450 l 578 451 z"},"s":{"x_min":0,"x_max":481,"ha":481,"o":"m 48 90 q 58 90 73 76 q 97 53 142 36 q 187 20 226 20 q 244 20 253 26 q 262 32 262 44 q 262 56 250 72 q 237 88 194 135 q 89 247 58 293 q 27 338 27 380 q 27 417 49 450 q 70 484 108 507 q 171 546 252 546 q 312 546 379 521 q 432 501 432 478 q 432 470 426 464 q 419 458 412 458 q 402 458 377 477 q 325 514 264 514 q 243 514 232 507 q 221 500 221 486 q 221 469 241 444 q 261 418 323 358 q 384 299 400 281 q 417 262 432 238 q 458 197 458 149 q 458 74 385 28 q 325 -11 238 -11 q 142 -11 67 32 q 45 45 37 54 q 29 62 29 72 q 29 90 48 90 z"},">":{"x_min":0,"x_max":500,"ha":500,"o":"m 37 81 l 37 162 l 244 289 l 37 432 l 37 649 l 464 353 l 464 342 z"},"l":{"x_min":0,"x_max":363,"ha":363,"o":"m 306 667 l 306 642 l 305 470 l 305 396 l 304 260 l 306 19 l 306 0 l 57 0 l 57 23 l 58 101 l 58 241 l 59 425 l 59 524 l 57 633 l 58 667 z"},"8":{"x_min":0,"x_max":646,"ha":646,"o":"m 493 413 q 536 384 558 362 q 614 306 614 225 q 614 151 565 90 q 520 33 431 3 q 366 -19 298 -19 q 172 -19 91 45 q 64 66 49 98 q 33 129 33 160 q 33 202 56 233 q 79 264 129 291 q 50 368 50 459 q 50 558 130 619 q 215 684 342 684 q 451 684 516 636 q 568 598 568 532 q 568 494 550 467 q 533 439 493 413 z m 457 429 q 497 451 513 474 q 530 498 530 530 q 530 587 482 617 q 426 651 337 651 q 274 651 236 636 q 197 621 197 595 q 197 563 281 514 q 322 491 408 452 z m 152 267 q 120 250 105 237 q 69 206 69 161 q 69 132 84 106 q 99 79 124 62 q 196 13 296 13 q 359 13 402 29 q 445 46 445 70 q 445 96 401 123 q 374 140 267 195 q 222 218 152 267 z"},"\\":{"x_min":0,"x_max":466,"ha":466,"o":"m 49 687 q 66 687 79 656 q 83 646 98 615 l 151 501 l 250 291 l 348 85 l 427 -81 q 436 -100 436 -105 q 436 -113 429 -118 q 422 -123 413 -123 q 405 -123 400 -117 q 396 -110 378 -72 l 355 -23 l 311 71 l 214 274 l 61 597 l 42 638 q 30 662 30 669 q 30 676 35 682 q 41 687 49 687 z"},"e":{"x_min":0,"x_max":599,"ha":599,"o":"m 251 251 l 251 100 q 251 56 257 44 q 267 21 305 21 q 362 21 417 52 q 473 83 513 138 q 526 156 532 161 q 538 166 545 166 q 553 166 559 160 q 564 154 564 145 q 564 124 531 89 q 488 45 425 17 q 361 -11 300 -11 q 196 -11 117 59 q 70 100 45 160 q 23 213 23 266 q 23 316 43 367 q 62 418 97 456 q 136 499 190 523 q 244 546 302 546 q 392 546 465 493 q 580 410 579 252 l 465 252 l 318 252 z m 376 283 l 376 426 q 375 472 375 481 q 374 490 368 498 q 354 517 312 517 q 269 517 258 495 q 251 481 251 426 l 251 283 l 311 281 z"},"b":{"x_min":0,"x_max":746,"ha":746,"o":"m 57 667 l 307 667 l 305 482 q 342 514 382 530 q 421 546 464 546 q 560 546 637 477 q 723 398 723 272 q 723 142 634 58 q 562 -11 469 -11 q 421 -11 383 6 q 346 23 306 63 l 306 0 l 57 0 l 57 22 l 58 259 l 58 428 z m 305 442 l 305 109 q 337 74 356 59 q 396 27 427 27 q 449 27 456 48 q 458 58 459 97 l 459 425 l 459 447 q 459 484 453 497 q 446 511 428 511 q 404 511 374 494 q 343 477 305 442 z"},"%":{"x_min":0,"x_max":769,"ha":769,"o":"m 188 676 q 246 676 291 637 q 349 587 349 493 q 349 411 300 360 q 253 312 187 312 q 115 312 67 368 q 23 419 23 495 q 23 576 70 625 q 118 675 188 676 z m 179 647 l 179 340 l 187 340 q 239 340 273 371 q 320 413 320 496 q 320 564 286 604 q 250 647 193 647 q 189 647 179 647 z m 529 582 l 272 67 l 261 44 q 250 24 248 18 q 236 -12 222 -12 q 216 -12 211 -7 q 207 -2 207 3 q 207 8 221 36 l 232 59 l 244 83 l 515 627 q 534 666 539 672 q 543 678 551 678 q 556 678 561 674 q 565 669 565 663 q 565 656 529 582 z m 585 354 q 654 354 701 304 q 749 254 749 168 q 749 80 691 29 q 647 -9 589 -9 q 554 -9 521 6 q 487 21 465 47 q 424 96 424 173 q 424 254 474 305 q 521 353 585 354 z m 580 325 l 580 20 q 588 20 592 20 q 646 20 679 55 q 720 98 720 174 q 720 242 685 282 q 668 301 643 313 q 617 326 592 326 q 588 326 580 325 z"},"m":{"x_min":0,"x_max":1155,"ha":1155,"o":"m 691 454 q 755 503 810 525 q 865 546 926 546 q 1038 546 1082 475 q 1094 453 1099 425 q 1104 397 1104 342 l 1102 213 l 1102 183 l 1104 20 l 1105 0 l 854 0 l 856 154 l 859 310 l 858 373 q 858 407 858 413 q 859 452 850 466 q 841 481 818 481 q 794 481 765 467 q 736 453 702 424 q 705 405 705 369 l 704 247 l 703 110 q 703 49 705 0 l 455 0 l 456 106 l 458 336 q 458 449 455 461 q 449 482 419 482 q 397 482 369 468 q 341 454 307 426 l 305 219 l 307 0 l 57 0 l 57 20 l 58 108 l 58 229 l 59 347 l 57 533 l 307 533 l 307 465 q 361 506 416 526 q 470 546 524 546 q 606 546 656 505 q 676 489 691 454 z"},"#":{"x_min":0,"x_max":646,"ha":646,"o":"m 385 667 l 381 632 l 373 562 l 364 481 l 363 471 l 472 471 l 474 484 l 482 571 l 490 656 q 493 673 508 673 q 526 673 526 657 q 526 648 524 636 l 508 494 l 506 482 l 505 471 l 587 471 q 605 471 612 468 q 619 464 619 455 q 619 436 584 436 l 501 436 l 500 420 l 498 405 l 491 338 l 485 278 l 482 249 l 564 249 q 582 249 589 245 q 595 242 595 233 q 595 213 561 213 l 478 213 l 468 110 l 459 24 q 458 3 454 -2 q 451 -7 440 -7 q 422 -7 422 10 q 422 16 425 37 l 444 202 l 445 213 l 336 213 l 334 195 l 314 0 l 118 0 l 123 37 l 131 110 l 141 202 l 143 213 l 63 213 q 28 213 28 233 q 28 242 35 245 q 42 249 60 249 l 146 249 l 148 265 l 150 281 l 166 436 l 86 436 q 52 436 52 455 q 52 464 58 468 q 65 471 83 471 l 169 471 l 171 484 l 179 568 l 186 641 l 188 667 z m 339 249 l 449 249 l 459 343 l 465 400 l 467 417 l 469 436 l 359 436 l 357 415 l 354 395 l 341 266 z"},",":{"x_min":0,"x_max":376,"ha":376,"o":"m 312 47 q 288 16 252 0 q 217 -15 170 -15 q 120 -15 83 8 q 37 36 37 87 q 37 128 66 158 q 112 205 188 205 q 257 205 299 166 q 340 128 340 63 q 340 21 322 -14 q 305 -49 273 -70 q 227 -102 146 -102 q 109 -102 109 -87 q 109 -75 127 -75 l 143 -76 l 153 -76 q 204 -76 238 -61 q 282 -42 301 4 q 306 16 312 47 z"},"n":{"x_min":0,"x_max":754,"ha":754,"o":"m 307 533 l 307 465 q 364 506 418 526 q 473 546 525 546 q 594 546 642 515 q 678 491 691 455 q 703 420 703 340 l 702 114 l 704 0 l 455 0 l 457 136 l 458 235 l 458 386 q 458 438 457 448 q 456 458 452 466 q 444 481 418 481 q 395 481 367 468 q 339 454 307 427 l 306 407 l 305 270 l 304 165 l 306 21 l 306 0 l 57 0 l 58 191 l 60 318 l 58 427 l 57 533 z"},"h":{"x_min":0,"x_max":758,"ha":758,"o":"m 306 464 q 353 496 383 511 q 456 546 528 546 q 580 546 621 528 q 663 509 683 477 q 707 438 707 335 l 706 263 l 705 167 l 708 0 l 458 0 l 459 302 l 457 456 q 452 481 421 481 q 398 481 369 468 q 341 454 306 425 l 305 303 l 307 90 l 309 0 l 57 0 l 58 206 l 58 441 l 57 644 l 57 667 l 306 667 l 306 653 l 307 569 l 306 518 z"},"z":{"x_min":0,"x_max":656,"ha":656,"o":"m 649 533 l 372 111 l 332 46 l 324 33 l 386 33 q 488 33 589 42 q 603 43 611 43 q 635 43 635 20 q 635 -3 603 -3 l 574 -2 l 318 0 l 1 0 q 101 131 256 380 l 321 483 l 333 503 l 281 503 q 174 503 104 498 q 90 496 81 496 q 58 496 58 516 q 58 529 64 534 q 70 539 86 539 l 104 538 l 414 533 z"},"B":{"x_min":0,"x_max":716,"ha":716,"o":"m 598 290 q 633 265 651 235 q 668 205 668 170 q 668 114 625 66 q 571 8 464 3 q 405 0 298 0 l 57 0 l 57 23 l 58 118 l 60 304 l 58 507 l 57 667 l 318 667 q 417 667 453 663 q 490 660 529 648 q 571 635 607 609 q 643 584 663 554 q 694 506 694 448 q 694 395 668 353 q 643 310 598 290 z m 559 277 q 538 273 520 273 q 481 273 457 286 q 434 298 434 319 q 434 330 441 330 q 447 330 458 325 q 491 308 531 308 q 603 308 639 365 q 663 400 663 446 q 663 516 608 566 q 570 602 516 618 q 463 634 382 634 l 355 634 l 353 341 l 355 32 l 399 32 q 472 32 513 40 q 553 48 580 67 q 636 108 636 171 q 636 203 616 229 q 597 256 559 277 z"},"K":{"x_min":0,"x_max":733,"ha":733,"o":"m 469 526 l 542 379 q 605 252 652 163 q 699 74 722 39 q 736 17 736 9 q 736 -9 710 -9 q 699 -9 694 -2 q 689 5 668 47 l 638 110 l 590 209 l 546 301 l 513 368 l 442 512 l 353 458 l 353 386 l 353 338 l 355 24 l 355 0 l 57 0 l 60 417 l 59 536 l 57 640 l 57 667 l 355 667 l 354 588 l 353 494 l 437 543 q 507 585 562 623 q 618 659 634 667 q 649 676 663 676 q 689 676 689 660 q 689 651 682 646 q 675 640 649 628 q 618 613 513 552 z"},"R":{"x_min":0,"x_max":765,"ha":765,"o":"m 463 110 q 510 78 565 55 q 619 33 682 20 q 697 17 697 5 q 697 -11 674 -11 q 623 -11 530 34 q 453 72 354 150 l 354 130 l 354 47 l 354 0 l 57 0 l 57 22 l 58 181 l 59 372 l 58 667 l 254 667 q 386 667 454 659 q 521 652 568 632 q 646 600 690 526 q 732 458 732 382 q 732 302 686 231 q 611 118 463 110 z m 417 141 l 440 140 q 541 140 610 196 q 654 231 678 284 q 700 333 700 383 q 700 468 644 536 q 602 588 538 609 q 474 631 357 632 l 353 305 l 353 217 l 354 194 q 383 165 417 141 z"},"T":{"x_min":0,"x_max":690,"ha":690,"o":"m 498 634 l 495 481 l 494 336 l 495 0 l 197 0 l 200 389 l 199 521 l 197 634 l 133 632 l 41 630 l 27 630 q 3 630 3 647 q 3 663 17 665 q 21 666 41 667 l 640 667 q 671 666 677 664 q 687 660 687 647 q 687 630 662 630 l 620 632 l 507 634 z"},"P":{"x_min":0,"x_max":762,"ha":762,"o":"m 354 120 l 354 106 l 354 12 l 354 0 l 57 0 l 57 30 l 60 373 l 58 536 l 57 647 l 57 667 l 280 667 q 417 667 487 655 q 558 643 605 613 q 670 572 705 500 q 732 445 732 384 q 732 319 702 259 q 666 188 599 150 q 533 111 446 111 q 414 111 354 120 z m 354 633 l 354 601 l 353 274 l 354 153 q 392 143 454 143 q 509 143 558 165 q 607 187 642 227 q 700 294 700 384 q 700 470 642 539 q 601 588 536 611 q 471 633 369 633 z"},"|":{"x_min":0,"x_max":500,"ha":500,"o":"m 185 667 l 316 667 l 316 -167 l 185 -167 z"},"t":{"x_min":0,"x_max":433,"ha":433,"o":"m 326 705 l 320 547 l 320 532 q 362 532 397 536 q 403 536 407 536 q 429 536 429 517 q 429 499 406 499 q 399 499 389 500 q 351 502 334 502 l 320 502 l 319 408 l 321 218 l 323 116 q 323 81 328 66 q 333 52 347 52 q 364 52 384 73 q 404 93 415 123 q 425 151 439 151 q 456 151 456 133 q 456 114 439 87 q 423 59 399 39 q 342 -12 250 -12 q 164 -12 116 41 q 92 67 83 99 q 73 132 73 189 l 73 226 l 74 329 l 74 504 q 67 504 64 504 q 59 504 44 503 q 32 502 24 502 q 0 502 0 521 q 0 538 23 538 q 34 538 38 538 l 74 535 l 74 590 q 218 643 326 705 z"},"M":{"x_min":0,"x_max":948,"ha":948,"o":"m 733 689 l 840 326 l 888 165 l 932 19 l 938 0 l 641 0 l 547 345 l 345 42 l 138 330 q 108 225 73 71 q 61 13 55 2 q 49 -9 32 -9 q 11 -9 11 5 q 11 10 24 55 l 55 159 l 107 338 l 210 689 l 478 302 z"},"g":{"x_min":0,"x_max":561,"ha":561,"o":"m 436 512 q 478 492 506 458 q 544 413 544 353 q 544 311 522 272 q 501 234 462 208 q 391 160 291 160 q 244 160 205 168 q 166 177 134 193 q 111 178 111 162 q 111 143 137 139 q 193 132 214 135 l 217 135 l 363 135 l 370 136 q 443 140 476 111 q 500 88 500 58 q 500 32 483 11 q 454 -24 404 -24 q 395 -24 380 -23 q 388 -11 388 -4 q 388 11 361 11 q 337 11 263 1 q 210 -6 176 -6 q 123 -6 83 17 q 60 30 47 53 q 34 76 34 103 q 34 133 50 158 q 65 183 103 211 q 68 233 49 268 q 30 304 30 345 q 30 444 129 502 q 203 546 309 546 q 333 546 358 544 q 393 541 408 541 q 447 541 464 575 q 475 596 486 596 q 496 596 502 590 q 509 583 509 575 q 509 557 490 540 q 470 523 436 512 z m 244 458 l 244 252 q 244 215 250 206 q 260 192 291 192 q 319 192 328 205 q 338 219 338 258 l 338 458 q 338 491 328 502 q 319 513 291 513 q 263 513 254 502 q 244 491 244 458 z"},"j":{"x_min":0,"x_max":397,"ha":397,"o":"m 342 533 l 341 429 l 342 357 l 343 301 q 343 171 337 135 q 332 99 307 61 q 246 -28 127 -28 q 62 -28 22 -2 q -10 18 -10 39 q -10 48 -4 54 q 2 61 10 61 q 19 61 23 57 q 27 52 40 31 q 53 9 73 9 q 86 9 91 17 q 95 24 96 46 l 98 199 l 97 359 l 96 440 l 95 513 l 95 533 z m 217 704 q 345 704 345 637 q 345 604 311 586 q 277 567 215 567 q 93 567 93 637 q 93 703 217 704 z"},"i":{"x_min":0,"x_max":367,"ha":367,"o":"m 182 704 q 311 704 311 637 q 311 604 277 586 q 243 567 181 567 q 59 567 59 637 q 59 703 182 704 z m 308 533 l 308 519 l 307 443 l 306 325 l 305 145 l 307 44 l 308 0 l 57 0 l 59 180 l 61 338 l 60 422 l 58 515 l 59 533 z"},"y":{"x_min":0,"x_max":604,"ha":604,"o":"m 428 290 q 523 436 567 512 q 583 538 587 542 q 591 546 598 546 q 608 546 616 539 q 624 532 624 522 q 624 515 615 505 q 545 409 437 245 l 351 114 q 307 46 278 17 q 256 -4 227 -18 q 197 -31 170 -31 q 143 -31 126 -20 q 108 -10 108 6 q 108 17 116 24 q 124 31 135 31 q 144 31 167 20 q 183 13 194 13 q 216 13 236 26 q 256 40 279 70 l 222 161 q 36 450 -27 533 l 284 533 q 313 469 351 405 q 389 341 428 290 z"},"@":{"x_min":0,"x_max":740,"ha":740,"o":"m 538 201 q 573 201 601 221 q 636 246 655 289 q 675 332 675 383 q 675 503 587 581 q 548 615 494 634 q 440 653 383 653 q 254 653 162 565 q 66 473 66 335 q 66 204 152 111 q 245 13 400 13 q 462 13 512 26 q 562 39 628 72 l 639 49 q 521 -11 400 -11 q 235 -11 136 92 q 91 138 66 199 q 40 265 40 336 q 40 435 89 517 q 139 598 228 641 q 303 677 384 677 q 469 677 545 638 q 625 598 666 521 q 701 457 701 385 q 701 296 653 237 q 604 177 533 177 l 378 177 l 383 208 q 335 171 283 171 q 227 171 188 209 q 150 247 150 303 q 150 376 203 427 q 262 483 335 483 q 385 483 422 452 l 425 476 l 582 476 l 559 338 z m 418 421 q 380 457 354 457 q 343 457 339 449 q 335 442 331 414 l 304 244 l 302 234 q 300 216 300 212 q 300 206 303 202 q 307 199 313 199 q 338 199 390 242 z"},".":{"x_min":0,"x_max":376,"ha":376,"o":"m 188 202 q 253 202 293 173 q 333 145 333 96 q 333 47 292 16 q 252 -15 188 -15 q 108 -15 68 30 q 44 56 44 91 q 44 141 83 171 q 123 201 188 202 z"},"p":{"x_min":0,"x_max":729,"ha":729,"o":"m 57 533 l 306 533 l 305 469 q 354 512 395 529 q 436 546 485 546 q 586 546 649 471 q 706 404 706 300 q 706 189 641 118 q 581 52 491 52 q 444 52 397 72 q 350 91 304 131 l 304 113 l 305 49 l 306 -4 l 306 -22 l 57 -22 l 57 117 l 58 246 l 57 516 z m 305 425 l 305 170 q 340 137 369 120 q 397 104 418 104 q 438 104 441 123 q 442 129 442 188 l 442 427 q 442 470 441 478 q 438 499 420 499 q 398 499 367 479 q 336 459 305 425 z"},"X":{"x_min":0,"x_max":775,"ha":775,"o":"m 520 391 l 530 375 q 628 219 667 162 q 705 104 780 0 l 432 0 l 263 275 q 184 181 80 36 q 61 9 51 0 q 41 -9 31 -9 q 14 -9 14 7 q 14 13 17 19 q 21 25 44 54 l 61 75 l 244 305 l 10 667 l 353 667 l 500 421 q 553 485 649 618 q 677 658 686 667 q 694 676 704 676 q 712 676 718 670 q 724 665 724 658 q 724 648 716 637 q 708 626 660 567 z"},"*":{"x_min":0,"x_max":395,"ha":395,"o":"m 162 550 l 155 667 l 242 667 l 235 550 l 344 592 l 371 510 l 258 480 l 332 390 l 262 339 l 199 437 l 136 339 l 65 390 l 140 480 l 26 510 l 53 592 z"},"Y":{"x_min":0,"x_max":733,"ha":733,"o":"m 535 412 l 690 639 q 706 664 712 670 q 718 676 727 676 q 735 676 741 671 q 747 667 747 661 q 747 654 741 646 q 737 639 731 632 l 715 611 l 318 53 l 302 31 q 281 1 276 -4 q 270 -9 260 -9 q 245 -9 245 4 q 245 12 259 28 l 370 180 l 356 198 q 208 398 147 477 q 85 555 -9 667 l 345 667 z"},"c":{"x_min":0,"x_max":563,"ha":563,"o":"m 286 427 l 286 101 l 286 70 q 286 40 293 30 q 301 20 324 20 q 381 20 437 55 q 493 90 528 150 q 539 168 549 168 q 556 168 562 161 q 568 155 568 147 q 568 130 540 98 q 512 66 474 41 q 397 -11 310 -11 q 190 -11 112 63 q 23 147 23 268 q 23 393 117 476 q 196 546 311 546 q 403 546 472 503 q 501 484 520 463 q 538 442 538 427 q 538 420 533 415 q 527 410 520 410 q 509 410 494 433 q 471 466 423 490 q 375 514 332 514 q 303 514 294 498 q 286 482 286 427 z"},"!":{"x_min":0,"x_max":384,"ha":384,"o":"m 203 270 l 172 270 q 163 319 151 343 q 139 367 80 457 q 43 512 43 562 q 43 619 82 650 q 125 687 193 687 q 263 687 305 646 q 341 613 341 562 q 341 534 331 509 q 322 484 297 448 q 250 378 233 346 q 215 313 203 270 z m 187 202 q 252 202 294 171 q 336 140 336 92 q 336 44 297 14 q 258 -15 195 -15 q 130 -15 88 15 q 47 45 47 92 q 47 142 87 172 q 125 201 187 202 z"},"/":{"x_min":0,"x_max":466,"ha":466,"o":"m 414 687 q 422 688 429 682 q 436 676 436 669 q 436 664 425 640 q 414 616 348 479 l 151 62 l 98 -51 q 83 -83 79 -92 q 66 -123 49 -123 q 42 -123 36 -118 q 30 -112 30 -105 q 30 -98 42 -74 l 61 -34 l 214 290 l 311 493 l 355 587 q 393 668 398 677 q 403 687 414 687 z"},"[":{"x_min":0,"x_max":365,"ha":365,"o":"m 57 687 l 203 687 l 268 688 q 305 688 305 669 q 305 651 272 651 l 237 651 l 203 651 l 202 495 l 200 282 l 202 69 l 203 -88 l 237 -87 l 269 -87 q 305 -87 305 -105 q 305 -125 263 -124 l 203 -123 l 57 -123 l 57 -95 l 59 43 l 62 282 l 59 521 l 57 659 z"},"6":{"x_min":0,"x_max":646,"ha":646,"o":"m 325 647 l 323 303 l 325 14 q 339 13 347 13 q 388 13 435 32 q 482 51 517 83 q 591 151 591 250 q 591 341 528 385 q 489 412 448 412 q 415 412 384 395 q 367 386 362 386 q 350 386 350 400 q 350 416 381 430 q 412 443 448 443 q 517 443 567 396 q 625 340 625 249 q 625 129 527 48 q 444 -19 335 -19 q 231 -19 152 42 q 28 135 28 319 q 28 465 113 564 q 165 625 239 657 q 302 684 367 684 q 452 684 513 638 q 557 604 557 577 q 557 568 551 562 q 544 556 535 556 q 521 556 511 576 q 489 616 457 633 q 421 652 365 652 q 347 652 325 647 z"},"r":{"x_min":0,"x_max":530,"ha":530,"o":"m 306 382 l 305 194 l 307 0 l 57 0 l 57 27 l 58 126 l 59 306 l 57 505 l 57 533 l 307 533 l 307 433 q 363 492 385 508 q 436 543 480 543 q 508 543 526 532 q 543 520 543 502 q 543 488 533 479 q 522 469 506 469 q 496 469 483 475 q 461 485 447 485 q 412 485 379 461 q 347 438 306 382 z"},"2":{"x_min":0,"x_max":646,"ha":646,"o":"m 360 31 l 378 31 q 511 32 569 39 q 588 42 598 42 q 614 42 614 26 q 614 7 597 2 q 589 0 567 0 l 13 0 q 100 104 159 183 q 218 261 283 356 q 354 462 382 514 q 410 565 410 591 q 410 621 388 635 q 365 650 320 650 q 274 650 227 635 q 179 620 146 595 q 115 571 96 537 q 77 503 77 470 q 77 447 83 431 q 89 416 110 385 q 115 378 115 372 q 115 364 109 359 q 103 353 96 353 q 77 353 60 388 q 42 424 42 463 q 42 518 76 567 q 113 624 182 654 q 250 684 341 684 q 439 684 509 649 q 561 625 590 576 q 613 537 613 487 q 613 449 599 409 q 585 370 553 314 q 495 217 418 112 z"},"{":{"x_min":0,"x_max":646,"ha":646,"o":"m 229 285 q 312 278 349 251 q 385 224 385 168 l 385 -31 q 385 -62 392 -71 q 399 -80 424 -80 l 446 -80 l 464 -80 q 487 -80 495 -81 q 512 -84 512 -100 q 512 -112 497 -115 q 481 -118 405 -118 q 291 -118 246 -77 q 227 -60 220 -36 q 213 -13 213 34 l 213 199 q 213 240 204 253 q 195 267 167 267 l 159 267 q 140 267 140 285 q 140 303 159 303 l 167 303 q 195 303 204 317 q 213 330 213 370 l 213 536 q 213 585 221 609 q 229 633 250 650 q 298 687 405 687 q 481 687 497 684 q 512 682 512 669 q 512 653 495 650 q 487 649 464 649 l 446 649 l 424 649 q 399 649 392 640 q 385 631 385 601 l 385 402 q 385 345 349 318 q 312 292 229 285 z"},"9":{"x_min":0,"x_max":646,"ha":646,"o":"m 322 17 l 324 362 l 322 651 q 307 652 300 652 q 258 652 211 633 q 165 614 130 583 q 56 514 56 415 q 56 324 120 280 q 158 253 199 253 q 232 253 262 270 q 279 279 284 279 q 297 279 297 265 q 297 249 266 235 q 235 221 198 221 q 130 221 80 269 q 22 325 22 416 q 22 536 120 616 q 203 684 312 684 q 416 684 495 624 q 619 530 619 345 q 619 200 534 101 q 482 40 407 8 q 345 -19 280 -19 q 195 -19 134 27 q 89 61 89 88 q 89 96 96 103 q 103 109 111 109 q 125 109 136 88 q 157 49 189 32 q 226 13 281 13 q 300 13 322 17 z"}," ":{"x_min":0,"x_max":250,"ha":250,"o":""},"I":{"x_min":0,"x_max":412,"ha":412,"o":"m 355 667 l 355 632 l 353 365 l 355 0 l 57 0 l 60 399 l 57 643 l 57 667 z"},"H":{"x_min":0,"x_max":759,"ha":759,"o":"m 676 437 l 675 574 l 674 635 q 674 659 678 667 q 682 676 694 676 q 712 676 712 646 l 712 613 l 711 504 l 709 330 l 711 148 l 712 21 q 712 3 708 -3 q 705 -9 694 -9 q 683 -9 678 -2 q 674 4 674 22 l 675 64 l 676 309 l 676 400 l 658 400 l 562 402 l 353 400 l 354 265 l 356 0 l 57 0 l 60 423 l 59 535 l 58 638 l 57 667 l 356 667 l 356 641 l 354 437 q 403 434 512 434 q 611 434 676 437 z"},"4":{"x_min":0,"x_max":646,"ha":646,"o":"m 536 135 l 536 0 l 261 0 l 263 68 l 263 123 l 263 133 l 250 133 l 203 133 l 94 132 l 65 131 q 40 131 30 136 q 20 141 20 153 q 20 162 29 174 q 39 186 81 230 l 537 719 l 537 684 l 535 520 l 534 320 l 536 168 q 542 167 545 167 q 548 167 554 169 l 607 171 l 621 172 q 637 172 637 154 q 637 138 624 136 q 621 135 588 135 z m 264 167 l 264 378 l 68 167 q 115 166 161 166 z"},"~":{"x_min":0,"x_max":667,"ha":667,"o":"m 529 401 l 564 383 q 539 340 495 298 q 475 278 454 270 q 433 262 400 262 q 370 262 290 288 q 253 300 220 300 q 187 300 165 285 q 160 282 148 272 q 145 269 138 263 l 104 280 q 147 346 177 370 q 217 402 261 402 q 289 402 353 383 q 420 363 449 363 q 491 363 529 401 z"},"D":{"x_min":0,"x_max":751,"ha":751,"o":"m 57 667 l 313 667 q 414 667 465 657 q 590 633 667 523 q 728 437 728 333 q 728 227 666 140 q 590 35 469 9 q 438 3 414 1 q 389 0 306 0 l 58 0 l 60 322 z m 355 635 l 353 243 l 355 31 q 421 32 449 36 q 478 41 515 57 q 603 95 652 178 q 696 250 696 333 q 696 424 645 500 q 553 636 374 636 z"},"^":{"x_min":0,"x_max":500,"ha":500,"o":"m 534 273 l 453 273 l 326 480 l 183 273 l -34 273 l 262 700 l 272 700 z"},"0":{"x_min":0,"x_max":646,"ha":646,"o":"m 333 684 q 458 684 542 582 q 624 482 624 328 q 624 168 527 67 q 446 -19 333 -19 q 254 -19 186 21 q 104 69 61 159 q 26 231 26 333 q 26 496 120 593 q 162 636 217 659 q 272 683 333 684 z m 323 651 l 320 333 l 322 72 l 323 14 q 414 13 480 68 q 534 113 563 180 q 591 248 591 332 q 591 480 515 568 q 480 607 435 629 q 390 652 345 652 q 338 652 323 651 z"},"F":{"x_min":0,"x_max":652,"ha":652,"o":"m 354 453 l 353 334 l 355 22 l 355 0 l 57 0 l 61 363 l 57 667 l 574 667 q 609 667 614 665 q 625 662 625 648 q 625 631 604 631 l 600 631 l 355 635 l 354 483 l 407 483 l 578 486 l 615 486 q 636 486 642 483 q 649 479 649 469 q 649 450 617 450 l 578 451 z"},"`":{"x_min":0,"x_max":500,"ha":500,"o":"m 333 588 l 219 588 l 114 722 l 286 722 z"},"k":{"x_min":0,"x_max":727,"ha":727,"o":"m 482 431 l 538 339 l 591 249 q 669 119 698 77 q 727 36 762 0 l 471 0 l 381 158 q 331 246 305 286 l 305 263 l 305 175 l 306 23 l 307 0 l 57 0 l 59 235 l 59 371 l 57 644 l 57 667 l 307 667 l 305 346 l 305 319 q 441 442 493 480 q 560 531 610 531 q 648 531 648 503 q 648 494 641 487 q 634 480 624 480 q 618 480 610 483 q 597 487 589 487 q 569 487 546 475 q 523 463 482 431 z"},"u":{"x_min":0,"x_max":755,"ha":755,"o":"m 698 533 l 697 149 l 698 0 l 449 0 l 449 69 q 387 26 336 8 q 285 -11 229 -11 q 127 -11 81 50 q 64 72 57 101 q 51 129 51 182 l 52 296 l 52 373 l 50 533 l 299 533 l 297 288 l 297 195 l 298 133 q 298 77 305 65 q 313 53 336 53 q 359 53 385 65 q 410 77 450 108 l 450 172 l 451 347 l 448 518 l 448 533 z"},"]":{"x_min":0,"x_max":365,"ha":365,"o":"m 305 -123 l 158 -123 l 94 -124 q 57 -124 57 -105 q 57 -87 89 -87 l 124 -87 q 154 -87 158 -88 l 160 69 l 161 282 l 160 495 l 158 651 l 124 651 l 89 651 q 57 651 57 669 q 57 688 98 688 l 158 687 l 305 687 l 305 659 l 302 521 l 299 282 l 302 43 l 305 -95 z"},"U":{"x_min":0,"x_max":751,"ha":751,"o":"m 355 667 l 353 414 l 352 148 l 354 13 q 378 11 397 11 q 568 11 626 90 q 656 131 666 207 q 675 282 675 481 l 674 610 l 672 650 q 672 676 693 676 q 711 676 711 651 q 711 637 710 613 l 706 418 q 704 295 702 251 q 699 207 692 168 q 677 88 622 41 q 552 -20 383 -20 q 234 -20 159 20 q 99 51 74 124 q 63 158 61 193 q 59 229 59 411 l 57 667 z"},"o":{"x_min":0,"x_max":599,"ha":599,"o":"m 301 546 q 379 546 450 503 q 515 463 549 394 q 579 333 579 264 q 579 217 561 170 q 543 123 513 86 q 470 36 408 10 q 357 -11 302 -11 q 209 -11 136 44 q 78 86 48 152 q 23 208 23 270 q 23 391 111 471 q 194 545 301 546 z m 287 515 l 285 22 q 300 21 306 21 q 374 21 436 60 q 496 97 525 158 q 549 207 549 266 q 549 383 462 457 q 392 516 309 516 q 302 516 287 515 z"},"N":{"x_min":0,"x_max":736,"ha":736,"o":"m 655 342 l 655 424 l 654 553 l 654 612 l 653 649 q 653 676 671 676 q 682 676 686 670 q 690 664 690 646 l 690 640 q 690 629 690 606 l 688 441 l 687 291 l 688 132 l 690 -27 q 589 36 396 147 q 202 258 82 321 l 82 297 l 87 45 l 87 12 q 87 -9 68 -9 q 48 -9 48 17 l 48 51 l 49 106 l 51 356 l 47 694 q 245 571 655 342 z"},"+":{"x_min":0,"x_max":646,"ha":646,"o":"m 435 315 l 434 286 l 435 222 l 437 137 l 212 137 l 214 222 l 215 287 l 214 315 l 170 314 l 148 314 l 122 315 l 79 314 q 48 314 48 333 q 48 353 79 353 l 123 352 l 148 353 l 214 353 l 215 381 l 214 445 l 212 530 l 437 530 l 435 445 l 434 380 l 435 353 l 500 353 l 536 352 l 571 353 q 599 353 599 333 q 599 314 571 314 l 529 315 l 500 314 l 479 314 z"},"G":{"x_min":0,"x_max":758,"ha":758,"o":"m 735 336 q 732 191 643 94 q 592 40 523 10 q 454 -20 380 -20 q 315 -20 253 4 q 190 29 142 73 q 80 129 50 209 q 27 272 27 335 q 27 451 99 546 q 148 612 223 649 q 297 687 379 687 q 523 687 627 587 q 674 543 674 524 q 674 518 669 514 q 664 509 656 509 q 645 509 632 526 q 534 657 380 657 q 362 657 343 654 l 340 308 l 343 13 q 361 10 379 10 q 435 10 486 28 q 617 75 674 199 q 699 251 703 305 l 448 305 q 415 306 408 309 q 401 311 401 321 q 401 337 424 337 l 454 336 z"},"q":{"x_min":0,"x_max":729,"ha":729,"o":"m 673 533 l 671 246 l 672 117 l 673 -22 l 423 -22 l 424 -4 l 425 49 l 426 131 q 379 91 333 72 q 286 52 238 52 q 148 52 88 118 q 23 189 23 300 q 23 404 80 471 q 143 546 244 546 q 294 546 334 529 q 375 512 425 469 l 423 533 z m 425 425 q 395 457 372 473 q 333 499 309 499 q 291 499 288 476 q 287 468 287 427 l 287 188 q 288 126 289 120 q 293 104 312 104 q 333 104 361 120 q 389 137 425 170 z"},"d":{"x_min":0,"x_max":746,"ha":746,"o":"m 689 667 l 688 428 l 688 259 l 689 22 l 689 0 l 440 0 l 440 63 q 400 23 363 6 q 325 -11 278 -11 q 185 -11 113 58 q 23 142 23 272 q 23 398 110 477 q 187 546 282 546 q 325 546 365 530 q 404 514 441 482 l 439 667 z m 441 442 q 403 477 373 494 q 342 511 319 511 q 300 511 294 497 q 287 484 287 447 l 288 425 l 288 97 q 288 58 291 48 q 297 27 319 27 q 344 27 371 45 q 398 63 441 109 z"},"1":{"x_min":0,"x_max":646,"ha":646,"o":"m 488 677 l 484 398 l 488 16 l 488 0 l 207 0 l 207 16 l 210 404 l 211 548 l 211 568 l 202 565 l 131 543 q 120 540 112 540 q 98 540 98 556 q 98 568 105 573 q 113 577 149 586 l 272 618 l 318 630 z"},"5":{"x_min":0,"x_max":646,"ha":646,"o":"m 301 485 q 280 487 265 487 q 177 487 133 450 q 123 441 118 441 q 113 441 107 447 q 102 453 102 458 q 102 461 104 467 l 110 483 l 119 507 q 133 544 152 604 l 172 666 l 320 664 l 384 663 l 494 666 l 515 666 q 534 666 534 654 q 534 641 525 632 q 517 623 504 623 q 496 623 481 625 q 368 630 203 631 l 193 631 l 151 504 q 197 519 267 519 q 349 519 419 497 q 518 465 564 395 q 604 335 604 258 q 604 182 564 118 q 480 -19 298 -19 q 174 -19 92 48 q 18 108 18 211 q 18 277 51 325 q 67 348 82 348 q 89 348 96 341 q 103 333 103 325 q 103 319 99 315 q 96 311 78 292 q 50 262 50 208 q 50 147 84 102 q 117 57 184 31 q 234 12 280 12 q 285 12 301 14 z"}}}
